{"title":"Attack On Pearl Harbor 2011.mkv","uid":12930799,"size":20145909010,"categoryP":"video","categoryS":"hd___movies","magnet":"?xt=urn:btih:1008f820b4f529cb306ded48c209ca8e6d3da9f2&amp;dn=Attack+On+Pearl+Harbor+2011.mkv&amp;tr=udp%3A%2F%2Ftracker.leechers-paradise.org%3A6969&amp;tr=udp%3A%2F%2Fzer0day.ch%3A1337&amp;tr=udp%3A%2F%2Fopen.demonii.com%3A1337&amp;tr=udp%3A%2F%2Ftracker.coppersurfer.tk%3A6969&amp;tr=udp%3A%2F%2Fexodus.desync.com%3A6969","seeders":0,"leechers":0,"uploader":"diseltuc","files":1,"time":1449522924,"description":"Format                                   : Matroska\r\nFormat version                           : Version 4 / Version 2\r\nFile size                                : 18.8 GiB\r\nDuration                                 : 2h 20mn\r\nOverall bit rate mode                    : Variable\r\nOverall bit rate                         : 19.2 Mbps\r\nEncoded date                             : UTC 2013-09-01 19:53:43\r\nWriting application                      : mkvmerge v6.1.0 ('Old Devil') built on Mar  2 2013 14:32:37\r\nWriting library                          : libebml v1.3.0 + libmatroska v1.4.0\r\n\r\nVideo\r\nID                                       : 2\r\nFormat                                   : AVC\r\nFormat/Info                              : Advanced Video Codec\r\nFormat profile                           :   \r\nFormat settings, CABAC                   : Yes\r\nFormat settings, ReFrames                : 3 frames\r\nCodec ID                                 : V_MPEG4/ISO/AVC\r\nDuration                                 : 2h 20mn\r\nBit rate mode                            : Variable\r\nBit rate                                 : 18.3 Mbps\r\nMaximum bit rate                         : 28.7 Mbps\r\nWidth                                    : 1 920 pixels\r\nHeight                                   : 1 080 pixels\r\nDisplay aspect ratio                     : 16:9\r\nFrame rate                               : 24.000 fps\r\nStandard                                 : NTSC\r\nColor space                              : YUV\r\nChroma subsampling                       : 4:2:0\r\nBit depth                                : 8 bits\r\nScan type                                : Progressive\r\nBits/(Pixel*Frame)                       : 0.368\r\nStream size                              : 18.0 GiB (96%)\r\nDefault                                  : Yes\r\nForced                                   : No\r\nColor primaries                          : BT.709-5, BT.1361, IEC 61966-2-4, SMPTE RP177\r\nTransfer characteristics                 : BT.709-5, BT.1361\r\nMatrix coefficients                      : BT.709-5, BT.1361, IEC 61966-2-4 709, SMPTE RP177\r\n\r\nAudio\r\nID                                       : 3\r\nFormat                                   : AC-3\r\nFormat/Info                              : Audio Coding 3\r\nMode extension                           : CM (complete main)\r\nFormat settings, Endianness              : Big\r\nCodec ID                                 : A_AC3\r\nDuration                                 : 2h 20mn\r\nBit rate mode                            : Constant\r\nBit rate                                 : 448 Kbps\r\nChannel(s)                               : 6 channels\r\nChannel positions                        : Front: L C R, Side: L R, LFE\r\nSampling rate                            : 48.0 KHz\r\nBit depth                                : 16 bits\r\nCompression mode                         : Lossy\r\nStream size                              : 449 MiB (2%)\r\nLanguage                                 : Japanese\r\nDefault                                  : Yes\r\nForced                                   : No\r\n\r\nText\r\nID                                       : 1\r\nFormat                                   : PGS\r\nMuxing mode                              : zlib\r\nCodec ID                                 : S_HDMV/PGS\r\nCodec ID/Info                            : The same subtitle format used on BDs/HD-DVDs\r\nLanguage                                 : Swedish\r\nDefault                                  : Yes\r\nForced                                   : No","torrent":{"xt":"urn:btih:1008f820b4f529cb306ded48c209ca8e6d3da9f2","amp;dn":"Attack+On+Pearl+Harbor+2011.mkv","amp;tr":["udp%3A%2F%2Ftracker.leechers-paradise.org%3A6969","udp%3A%2F%2Fzer0day.ch%3A1337","udp%3A%2F%2Fopen.demonii.com%3A1337","udp%3A%2F%2Ftracker.coppersurfer.tk%3A6969","udp%3A%2F%2Fexodus.desync.com%3A6969"],"infoHash":"1008f820b4f529cb306ded48c209ca8e6d3da9f2","infoHashBuffer":{"type":"Buffer","data":[16,8,248,32,180,245,41,203,48,109,237,72,194,9,202,142,109,61,169,242]},"announce":[],"urlList":[]}}